<?xml version="1.0" encoding="utf-8"?><svg fill="none" viewBox="0 0 32 32" xmlns="http://www.w3.org/2000/svg"><defs><clipPath id="cp-32-32"><rect height="32" width="32" y="0" x="0" /></clipPath><linearGradient id="null" gradientUnits="userSpaceOnUse" spreadMethod="pad" x2="100" y2="0" x1="0" y1="0"><stop offset="0%" stop-color="#6fb951" /><stop offset="46.800000000000004%" stop-color="#b3bc4a" /><stop offset="66.60000000000001%" stop-color="#f6bf44" /><stop offset="83.3%" stop-color="#f9be2d" /><stop offset="100%" stop-color="#fbbe15" /></linearGradient><linearGradient id="null" gradientUnits="userSpaceOnUse" spreadMethod="pad" x2="1" y2="1.326" x1="1" y1="-1"><stop offset="0%" stop-color="#ffe682" /><stop offset="50%" stop-color="#ffd241" /><stop offset="100%" stop-color="#ffbf00" /></linearGradient><linearGradient id="null" gradientUnits="userSpaceOnUse" spreadMethod="pad" x2="-1" y2="-0.674" x1="-1" y1="-3"><stop offset="0%" stop-color="#ffe682" /><stop offset="50%" stop-color="#ffd241" /><stop offset="100%" stop-color="#ffbf00" /></linearGradient><linearGradient id="null" gradientUnits="userSpaceOnUse" spreadMethod="pad" x2="-2.225" y2="-4.168" x1="-1.923" y1="-6.474"><stop offset="0%" stop-color="#ffe682" /><stop offset="50%" stop-color="#ffd241" /><stop offset="100%" stop-color="#ffbf00" /></linearGradient><linearGradient id="null" gradientUnits="userSpaceOnUse" spreadMethod="pad" x2="1" y2="10.326" x1="1" y1="8"><stop offset="0%" stop-color="#ffe682" /><stop offset="50%" stop-color="#ffd241" /><stop offset="100%" stop-color="#ffbf00" /></linearGradient><linearGradient id="null" gradientUnits="userSpaceOnUse" spreadMethod="pad" x2="-1" y2="7.326" x1="-1" y1="5"><stop offset="0%" stop-color="#ffe682" /><stop offset="50%" stop-color="#ffd241" /><stop offset="100%" stop-color="#ffbf00" /></linearGradient><linearGradient id="null" gradientUnits="userSpaceOnUse" spreadMethod="pad" x2="1" y2="4.326" x1="1" y1="2"><stop offset="0%" stop-color="#ffe682" /><stop offset="50%" stop-color="#ffd241" /><stop offset="100%" stop-color="#ffbf00" /></linearGradient><g id="comp_0"><g transform="matrix(1,0,0,1,15.158,15.283)" id="Shape Layer 2"><animate repeatCount="indefinite" begin="0s" calcMode="discrete" fill="freeze" dur="10s" values="visible; hidden" keyTimes="0; 1" attributeName="visibility" /><g id="Ellipse 1" transform="matrix(1,0,0,1,0.842,0.717)"><ellipse ry="13.9665" rx="13.9665" cy="0" cx="0" fill="url(#null)" /></g></g><g visibility="hidden" id="Layer 2"><animate repeatCount="indefinite" begin="0.25s" calcMode="discrete" fill="freeze" dur="10s" values="visible; visible" keyTimes="0; 1" attributeName="visibility" /><g transform="translate(49.625,16)"><animateTransform repeatCount="indefinite" type="translate" attributeName="transform" dur="1.333s" begin="0.25s" calcMode="spline" values="49.625 16; 16 16; 16 16; -11.75 16" keyTimes="0; 0.25; 0.75; 1" keySplines="1 0 0.667 1; 0 0 1 1; 0.167 0 0 1" fill="freeze" /><g transform="scale(1,1) translate(0,0)"><g id="Group 6"><path fill="url(#null)" d="M7.144,-0.872L-4.212,-0.872C-4.635,-0.872,-4.978,-0.529,-4.978,-0.106L-4.978,1.153C-4.978,1.576,-4.635,1.919,-4.212,1.919L7.144,1.919C7.567,1.919,7.91,1.576,7.91,1.153L7.91,-0.106C7.91,-0.529,7.567,-0.872,7.144,-0.872Z" /></g><g id="Group 5"><path fill="url(#null)" d="M5.43,-3.663L-5.926,-3.663C-6.349,-3.663,-6.693,-3.32,-6.693,-2.897L-6.693,-1.638C-6.693,-1.215,-6.349,-0.872,-5.926,-0.872L5.43,-0.872C5.853,-0.872,6.196,-1.215,6.196,-1.638L6.196,-2.897C6.196,-3.32,5.853,-3.663,5.43,-3.663Z" /></g><g><g id="Group 4" transform="rotate(0)"><animateTransform repeatCount="indefinite" type="rotate" attributeName="transform" dur="0.5s" begin="0.458s" calcMode="spline" values="0; 18; 0; 9; 0" keyTimes="0; 0.25; 0.5; 0.75; 1" keySplines="0.333 0 0.667 1; 0.333 0 0.667 1; 0.333 0 0.667 1; 0.333 0 0.667 1" fill="freeze" /><path fill="url(#null)" d="M7.476,-6.289L-3.783,-7.767C-4.203,-7.822,-4.588,-7.527,-4.643,-7.107L-4.807,-5.859C-4.862,-5.439,-4.567,-5.055,-4.147,-5L7.113,-3.522C7.533,-3.467,7.917,-3.761,7.972,-4.181L8.136,-5.43C8.191,-5.85,7.896,-6.234,7.476,-6.289Z" /></g></g><g id="Group 3"><path fill="url(#null)" d="M7.144,7.501L-4.212,7.501C-4.635,7.501,-4.978,7.845,-4.978,8.268L-4.978,9.526C-4.978,9.949,-4.635,10.292,-4.212,10.292L7.144,10.292C7.567,10.292,7.91,9.949,7.91,9.526L7.91,8.268C7.91,7.845,7.567,7.501,7.144,7.501Z" /></g><g id="Group 2"><path fill="url(#null)" d="M5.43,4.71L-5.926,4.71C-6.349,4.71,-6.693,5.053,-6.693,5.476L-6.693,6.735C-6.693,7.158,-6.349,7.501,-5.926,7.501L5.43,7.501C5.853,7.501,6.196,7.158,6.196,6.735L6.196,5.476C6.196,5.053,5.853,4.71,5.43,4.71Z" /></g><g id="Group 1"><path fill="url(#null)" d="M7.266,1.919L-4.09,1.919C-4.513,1.919,-4.856,2.262,-4.856,2.685L-4.856,3.944C-4.856,4.367,-4.513,4.71,-4.09,4.71L7.266,4.71C7.689,4.71,8.032,4.367,8.032,3.944L8.032,2.685C8.032,2.262,7.689,1.919,7.266,1.919Z" /></g></g></g></g><g id="Layer 2"><g transform="translate(49.625,16)"><animateTransform repeatCount="indefinite" type="translate" attributeName="transform" dur="1.333s" begin="0.25s" calcMode="spline" values="49.625 16; 16 16; 16 16; -11.75 16" keyTimes="0; 0.25; 0.75; 1" keySplines="1 0 0.667 1; 0 0 1 1; 0.167 0 0 1" fill="freeze" /><g transform="scale(1,1) translate(0,0)"><g transform="matrix(1,0,0,1,0,0)" visibility="hidden" id="Layer 1"><animate repeatCount="indefinite" begin="0.208s" calcMode="discrete" fill="freeze" dur="10s" values="visible; hidden" keyTimes="0; 1" attributeName="visibility" /><g id="Group 14"><path fill="#ffcc00" fill-opacity="1" d="M2.609,3.78C2.609,7.643,-0.528,10.78,-4.391,10.78C-8.254,10.78,-11.391,7.643,-11.391,3.78C-11.405,-0.083,-8.268,-3.22,-4.391,-3.22C-0.528,-3.22,2.609,-0.083,2.609,3.78Z" /></g><g id="Group 13"><path fill="#fcdc59" fill-opacity="1" d="M0.964,-0.727C-0.324,-2.248,-2.241,-3.22,-4.392,-3.22C-8.269,-3.22,-11.405,-0.083,-11.405,3.78C-11.405,4.588,-11.268,5.369,-11.008,6.095C-7.063,3.753,-3.077,1.478,0.964,-0.727Z" /></g><g id="Group 12"><path fill="#fcdc59" fill-opacity="1" d="M-3.583,10.739C-1.98,10.561,-0.542,9.821,0.554,8.739C-0.542,9.273,-1.638,9.807,-2.734,10.328C-3.008,10.465,-3.295,10.602,-3.583,10.739Z" /></g><g id="Group 11"><path fill="#da8100" fill-opacity="1" d="M0.814,3.671C0.814,6.616,-1.57,8.999,-4.515,8.999C-7.46,8.999,-9.844,6.616,-9.844,3.671C-9.844,0.726,-7.46,-1.658,-4.515,-1.658C-1.57,-1.644,0.814,0.739,0.814,3.671Z" /></g><g id="Group 10"><path fill="#f0aa00" fill-opacity="1" d="M0.964,3.89C0.964,6.794,-1.391,9.137,-4.282,9.137C-7.186,9.137,-9.529,6.78,-9.529,3.89C-9.529,0.986,-7.172,-1.356,-4.282,-1.356C-1.378,-1.356,0.964,0.999,0.964,3.89Z" /></g><g id="Group 9"><path fill="#ea9c00" fill-opacity="1" d="M-2.022,0.904L-3.734,0.904C-3.433,1.164,-3.214,1.547,-3.159,2.068L-2.022,2.068L-2.022,2.644L-3.145,2.644C-3.255,3.808,-4.09,4.562,-5.419,4.603C-4.611,5.535,-3.734,6.699,-2.857,7.877L-3.857,7.877C-4.651,6.809,-5.419,5.808,-6.392,4.657L-6.392,3.945L-5.816,3.945C-4.693,3.945,-4.09,3.425,-4.022,2.644L-6.392,2.644L-6.392,2.068L-4.063,2.068C-4.214,1.397,-4.762,1.068,-5.666,1.068L-6.405,1.068L-6.405,0.329L-2.036,0.329L-2.036,0.904L-2.022,0.904Z" /></g><g id="Group 8"><path fill="#ffcc00" fill-opacity="1" d="M-2.172,0.766L-3.885,0.766C-3.584,1.026,-3.364,1.41,-3.309,1.931L-2.172,1.931L-2.172,2.506L-3.296,2.506C-3.406,3.67,-4.241,4.424,-5.57,4.465C-4.762,5.397,-3.885,6.561,-3.008,7.739L-4.008,7.739C-4.816,6.657,-5.57,5.671,-6.556,4.52L-6.556,3.807L-5.981,3.807C-4.858,3.807,-4.254,3.287,-4.186,2.506L-6.542,2.506L-6.542,1.931L-4.214,1.931C-4.365,1.26,-4.912,0.931,-5.816,0.931L-6.556,0.931L-6.556,0.191L-2.186,0.191L-2.186,0.766L-2.172,0.766Z" /></g><g id="Group 7"><path fill="#fbfce6" fill-opacity="1" d="M-11.721,3.561L-11.406,4.123L-10.844,4.438L-11.406,4.753L-11.721,5.314L-12.022,4.753L-12.597,4.438L-12.022,4.123L-11.721,3.561Z" /></g><g id="Group 6"><path fill="#fbfce6" fill-opacity="1" d="M-10.844,-2.097L-10.68,-1.809L-10.392,-1.645L-10.68,-1.494L-10.844,-1.206L-10.995,-1.494L-11.282,-1.645L-10.995,-1.809L-10.844,-2.097Z" /></g><g id="Group 5"><path fill="#fbfce6" fill-opacity="1" d="M-0.09,-2.96L0.225,-2.398L0.773,-2.097L0.225,-1.795L-0.09,-1.234L-0.392,-1.795L-0.953,-2.097L-0.392,-2.398L-0.09,-2.96Z" /></g><g id="Group 4"><path fill="#fbfce6" fill-opacity="1" d="M-0.296,8.369L-0.077,8.78L0.32,8.999L-0.077,9.218L-0.296,9.629L-0.529,9.218L-0.926,8.999L-0.529,8.78L-0.296,8.369Z" /></g><g id="Group 3"><path fill="#fbfce6" fill-opacity="1" d="M3.745,4.027L3.882,4.287L4.156,4.438L3.882,4.588L3.745,4.849L3.594,4.588L3.32,4.438L3.594,4.287L3.745,4.027Z" /></g><g id="Group 2"><path fill="#fbfce6" fill-opacity="1" d="M3.745,1.013L3.786,1.109L3.882,1.164L3.786,1.205L3.745,1.301L3.69,1.205L3.594,1.164L3.69,1.109L3.745,1.013Z" /></g><g id="Group 1"><path fill="#fbfce6" fill-opacity="1" d="M-12.597,1.013L-12.542,1.109L-12.447,1.164L-12.542,1.205L-12.597,1.301L-12.638,1.205L-12.734,1.164L-12.638,1.109L-12.597,1.013Z" /></g></g></g></g></g><g transform="matrix(1,0,0,1,20.856,22.501)" visibility="hidden" id="Layer 3"><animate repeatCount="indefinite" begin="2s" calcMode="discrete" fill="freeze" dur="8s" values="visible; hidden" keyTimes="0; 1" attributeName="visibility" /><g id="Group 1"><path stroke-linejoin="round" stroke-linecap="round" stroke-width="2.5" stroke-opacity="1" stroke="#ffffff" d="M-12.606,-5.251L-8.606,-1.251L2.894,-11.751" /></g></g><g id="Layer 4"><animate repeatCount="indefinite" begin="0s" calcMode="discrete" fill="freeze" dur="8s" values="visible; hidden" keyTimes="0; 1" attributeName="visibility" /><g transform="translate(20.856,22.501)"><animateTransform repeatCount="indefinite" type="translate" attributeName="transform" dur="0.25s" begin="0s" calcMode="spline" values="20.856 22.501; -22.019 22.501" keyTimes="0; 1" keySplines="1 0 0.667 1" fill="freeze" /><g transform="scale(1,1) translate(0,0)"><g id="Group 1"><path stroke-linejoin="round" stroke-linecap="round" stroke-width="2.5" stroke-opacity="1" stroke="#ffffff" d="M-12.606,-5.251L-8.606,-1.251L2.894,-11.751" /></g></g></g></g></g><linearGradient id="null" gradientUnits="userSpaceOnUse" spreadMethod="pad" x2="100" y2="0" x1="0" y1="0"><stop offset="0%" stop-color="#6fb951" /><stop offset="46.800000000000004%" stop-color="#b3bc4a" /><stop offset="66.60000000000001%" stop-color="#f6bf44" /><stop offset="83.3%" stop-color="#f9be2d" /><stop offset="100%" stop-color="#fbbe15" /></linearGradient></defs><g transform="matrix(1,0,0,1,0,0)" id="Pre-comp 1"><use clip-path="url(#cp-32-32)" height="32" width="32" y="0" x="0" xlink:href="#comp_0" href="#comp_0" /></g><g transform="matrix(1,0,0,1,15.158,15.283)" id="Shape Layer 1"><g id="Ellipse 1" transform="matrix(1,0,0,1,0.842,0.717)"><ellipse ry="13.9665" rx="13.9665" cy="0" cx="0" fill="url(#null)" /></g></g></svg>