<?xml version="1.0" encoding="UTF-8"?>
<svg version="1.1" xmlns="http://www.w3.org/2000/svg" width="407" height="376">
<path d="M0 0 C37.95 0 75.9 0 115 0 C113.84752678 3.45741966 112.27075657 4.46004332 109.49609375 6.67578125 C105.22320448 10.45779029 104.16055028 14.87270877 103.75 20.3125 C104.16234546 26.3945955 106.92255421 30.8880614 110 36 C110.9529683 37.68663428 111.90577547 39.3733636 112.85473633 41.06225586 C116.55396179 47.67616058 116.55396179 47.67616058 120.8125 53.9375 C122.74085001 56.63719002 123.90364847 59.10576659 125.16772461 62.14282227 C126.48669581 65.0860355 128.1699744 67.76665157 129.875 70.5 C130.53242188 71.5621875 131.18984375 72.624375 131.8671875 73.71875 C133.36648545 76.02536222 134.88385995 78.21671978 136.515625 80.421875 C139.10141329 84.00295905 140.99285745 87.76548482 142.875 91.75 C145.66908959 97.50059554 148.69759699 102.89692847 152.2265625 108.23828125 C154.23328243 111.36328343 156.06094652 114.57388099 157.875 117.8125 C160.57627912 122.62908038 163.44912752 127.27290282 166.5 131.875 C169.67241583 136.67905936 172.34078559 141.55327468 174.8125 146.75 C177.7029248 152.80462524 181.06874672 158.29076075 184.875 163.8125 C190.55626237 172.07388732 195.18717633 180.65280918 199.73828125 189.57275391 C201.94850666 193.82470071 204.28654966 198.0050954 206.625 202.1875 C207.28266357 203.36505859 207.28266357 203.36505859 207.95361328 204.56640625 C208.96725961 206.37862107 209.98333752 208.18947553 211 210 C211.99 210 212.98 210 214 210 C214.99 207.03 214.99 207.03 216 204 C216.66 204 217.32 204 218 204 C218.23976562 203.18273437 218.47953125 202.36546875 218.7265625 201.5234375 C220.24598826 197.31938218 222.24135219 193.54366036 224.375 189.625 C225.15457467 188.18018828 225.93322482 186.73487734 226.7109375 185.2890625 C227.0927417 184.58064209 227.4745459 183.87222168 227.86791992 183.14233398 C228.99409043 181.01118319 230.0710929 178.86118804 231.13671875 176.69921875 C232.43433322 174.08079511 233.79715796 171.61111956 235.4375 169.1875 C238.52131991 164.38938268 240.74279119 159.22519827 243 154 C243.66 154 244.32 154 245 154 C245.27996826 153.12150391 245.55993652 152.24300781 245.84838867 151.33789062 C247.6179897 146.20878628 249.98284394 141.39444341 252.3125 136.5 C253.0230957 134.97052734 253.0230957 134.97052734 253.74804688 133.41015625 C256.35391787 127.92748924 259.07641215 123.65355768 263 119 C265.15283542 115.30680845 267.07399467 111.50284813 269 107.6875 C270.01969033 105.69082211 271.04050967 103.69472037 272.0625 101.69921875 C272.80415405 100.24962769 272.80415405 100.24962769 273.56079102 98.77075195 C275.62374978 94.79916263 277.79451759 90.8938141 280 87 C280.38559082 86.31752197 280.77118164 85.63504395 281.16845703 84.93188477 C282.67402359 82.27008664 284.18034565 79.60874521 285.69335938 76.95117188 C287.55976455 73.65006916 289.35316004 70.33474076 291.03125 66.93359375 C292.85693323 63.23488307 294.85945164 59.68854432 296.9375 56.125 C300.18013669 50.51574942 303.17602675 44.83013832 306 39 C306.72713909 37.54065464 307.45619109 36.08226024 308.1875 34.625 C308.64189453 33.71621094 308.64189453 33.71621094 309.10546875 32.7890625 C310 31 310 31 311.08984375 29.30078125 C312.47762975 25.79260119 312.36865039 22.28019786 312.375 18.5625 C312.39949219 17.81162109 312.42398437 17.06074219 312.44921875 16.28710938 C312.46974321 12.39772425 312.28848264 10.45727568 310.1640625 7.08984375 C307.98492717 4.86068775 307.98492717 4.86068775 305 3 C305 2.01 305 1.02 305 0 C324.14 0 343.28 0 363 0 C360.75351926 7.8626826 360.75351926 7.8626826 358.49609375 11.828125 C357.76302002 13.13656372 357.76302002 13.13656372 357.01513672 14.47143555 C356.4945166 15.38836182 355.97389648 16.30528809 355.4375 17.25 C351.50994899 24.297387 347.75957031 31.36310835 344.375 38.6875 C341.42769779 45.06299758 338.31298455 51.30640777 335 57.5 C331.24201498 64.52978706 327.75716272 71.64552678 324.39672852 78.87280273 C321.74578047 84.53277768 318.89330566 90.05641081 315.9375 95.5625 C312.69499498 101.61120967 309.71960235 107.6990028 307 114 C303.25422285 122.65160957 298.92884832 130.91833269 294.48046875 139.22558594 C283.38323181 159.82684504 283.38323181 159.82684504 273.65966797 181.09399414 C272.11196583 184.77615444 270.34883092 188.14699874 268.2434082 191.54492188 C264.95732571 196.9765434 262.08290329 202.56215398 259.26171875 208.24609375 C258.73665237 209.29668472 258.211586 210.3472757 257.67060852 211.42970276 C256.56536875 213.64318575 255.46205914 215.85763347 254.3605957 218.07299805 C252.70651845 221.39925497 251.04618595 224.7223277 249.38476562 228.04492188 C244.09224793 238.64924577 238.83876794 249.26452457 233.8782196 260.02915955 C230.20063445 267.93381132 225.75180689 276.4216196 218 281 C214.87252111 281.73692141 211.82498871 281.76851989 208.62109375 281.77734375 C207.73140396 281.7972084 206.84171417 281.81707306 205.92506409 281.83753967 C204.05187827 281.87459188 202.17842895 281.89996084 200.30493164 281.91430664 C197.4424068 281.93746031 194.58251494 281.99787651 191.72070312 282.06445312 C189.89586975 282.095937 188.07099841 282.12530575 186.24609375 282.15234375 C185.39389755 282.16885483 184.54170135 282.18536591 183.66368103 282.20237732 C178.5590513 282.22807774 174.38952226 282.11699166 170.38598633 278.57006836 C166.74060107 274.12096585 163.62942252 269.50219065 160.6875 264.5625 C160.213125 263.77609131 159.73875 262.98968262 159.25 262.17944336 C155.48708954 255.90519369 151.88271508 249.54792388 148.32421875 243.15625 C145.6929135 238.43568152 143.00977682 233.74562855 140.3125 229.0625 C139.87292969 228.29365479 139.43335938 227.52480957 138.98046875 226.73266602 C136.7835672 222.9271425 134.50753491 219.22189272 132.0390625 215.5859375 C128.76014024 210.73262672 125.91382904 205.6750198 123.0625 200.5625 C119.53167652 194.29782117 115.94277747 188.27022807 111.68359375 182.46875 C109.53742231 179.32169582 107.7098681 176.02106782 105.875 172.6875 C100.29884157 162.55762205 94.14111619 152.79388931 88 143 C72.74276847 118.65820263 57.9701521 93.98869136 43.59375 69.1171875 C35.92006669 55.85091165 27.98153787 42.78549539 19.78857422 29.83349609 C18.04929637 27.07809632 16.32167196 24.3157501 14.59765625 21.55078125 C13.54439122 19.86711218 12.49101216 18.18351444 11.4375 16.5 C10.97327637 15.75322998 10.50905273 15.00645996 10.03076172 14.23706055 C6.89982301 9.25581537 3.55715238 4.74286984 0 0 Z " fill="#243766" transform="translate(20,82)"/>
<path d="M0 0 C12.54 0 25.08 0 38 0 C38.27253581 14.63132965 38.49287245 29.26104595 38.62174606 43.89435863 C38.68321723 50.69133052 38.76676574 57.48659583 38.90527344 64.2824707 C39.03920678 70.85712836 39.10767269 77.43068993 39.13852692 84.00664711 C39.16047623 86.49875876 39.20333237 88.99078837 39.26876068 91.48213768 C39.69801003 108.5252684 37.17315387 119.80309828 27.40778732 133.9052639 C25.44736559 136.82229981 23.86542614 139.84465211 22.2734375 142.9765625 C21.53287109 144.41128906 21.53287109 144.41128906 20.77734375 145.875 C20.31457031 146.7825 19.85179687 147.69 19.375 148.625 C18.38430514 150.55545424 17.39218583 152.48517833 16.3984375 154.4140625 C15.77461182 155.63536865 15.77461182 155.63536865 15.13818359 156.88134766 C14 159 14 159 12 162 C9 161 9 161 7.94091797 159.46533203 C7.62783691 158.81935059 7.31475586 158.17336914 6.9921875 157.5078125 C6.64542969 156.80269531 6.29867187 156.09757813 5.94140625 155.37109375 C5.58949219 154.62988281 5.23757812 153.88867188 4.875 153.125 C4.51535156 152.39152344 4.15570313 151.65804687 3.78515625 150.90234375 C1.32404273 145.84185191 -0.12529914 141.96393006 -0.12025452 136.24836731 C-0.12162918 135.04943344 -0.12300385 133.85049957 -0.12442017 132.61523438 C-0.12082489 131.29821533 -0.11722961 129.98119629 -0.11352539 128.62426758 C-0.11324335 127.2248281 -0.11340159 125.82538848 -0.1139679 124.4259491 C-0.11425521 120.62458216 -0.10836915 116.82324668 -0.10139394 113.02188706 C-0.0951494 109.05004933 -0.09455573 105.0782109 -0.09336853 101.10636902 C-0.09025847 93.58411051 -0.08204944 86.0618665 -0.07201904 78.53961438 C-0.06084783 69.97622727 -0.05534491 61.41283947 -0.05032361 52.84944689 C-0.03986657 35.2329547 -0.02152511 17.61648239 0 0 Z " fill="#BD974E" transform="translate(221,97)"/>
<path d="M0 0 C17.49 0 34.98 0 53 0 C53 11.55 53 23.1 53 35 C47.78286818 33.95657364 46.05198282 32.7927159 42 29.5625 C36.95114354 25.42829325 36.95114354 25.42829325 31 23 C28.88333201 23.63646078 28.88333201 23.63646078 26.875 25.125 C26.01261719 25.68832031 25.15023437 26.25164063 24.26171875 26.83203125 C23.18535156 27.54746094 22.10898437 28.26289062 21 29 C19.53005233 29.92489176 18.05715444 30.84510406 16.58203125 31.76171875 C8.26875261 36.93489316 0.09729117 42.23704223 -7.9140625 47.8671875 C-11.12755293 50.08815683 -14.39321851 52.21456776 -17.6875 54.3125 C-29.67656189 61.95374992 -41.49562372 69.85634447 -53.10546875 78.0625 C-54.06066406 78.701875 -55.01585937 79.34125 -56 80 C-56.94794434 80.6919043 -57.89588867 81.38380859 -58.87255859 82.09667969 C-64.19954397 85.0963894 -69.98771785 84.49388306 -75.93359375 84.390625 C-77.16666763 84.38496521 -78.39974152 84.37930542 -79.67018127 84.37347412 C-83.59302239 84.35115549 -87.51493679 84.30096423 -91.4375 84.25 C-94.10350226 84.22766801 -96.76949582 84.21167969 -99.43554688 84.1953125 C-105.9573453 84.15130524 -112.47860642 84.08443668 -119 84 C-118.59007812 83.32453125 -118.18015625 82.6490625 -117.7578125 81.953125 C-117.21898437 81.06109375 -116.68015625 80.1690625 -116.125 79.25 C-115.59132812 78.36828125 -115.05765625 77.4865625 -114.5078125 76.578125 C-113.24403334 74.41725907 -112.08501165 72.25429605 -111 70 C-109.84064941 70.00112793 -108.68129883 70.00225586 -107.48681641 70.00341797 C-103.14388316 69.99971895 -98.80204306 69.95667304 -94.45947266 69.90234375 C-92.58779998 69.88428799 -90.71599516 69.87659615 -88.84423828 69.87988281 C-73.86135284 70.03806862 -73.86135284 70.03806862 -61 63 C-59.83603299 62.14652821 -58.67079088 61.2947909 -57.50390625 60.4453125 C-55.52413403 58.88357984 -53.54497849 57.32106514 -51.56640625 55.7578125 C-49 54 -49 54 -46 54 C-45.67 53.01 -45.34 52.02 -45 51 C-43.44946289 49.77319336 -43.44946289 49.77319336 -41.47265625 48.58984375 C-40.40821289 47.94112305 -40.40821289 47.94112305 -39.32226562 47.27929688 C-38.57654297 46.83650391 -37.83082031 46.39371094 -37.0625 45.9375 C-35.5936405 45.05312152 -34.12613008 44.16649742 -32.66015625 43.27734375 C-32.00668213 42.88796631 -31.35320801 42.49858887 -30.67993164 42.09741211 C-28.84182192 40.9786708 -28.84182192 40.9786708 -27 39 C-26.01 39 -25.02 39 -24 39 C-24 38.34 -24 37.68 -24 37 C-23.3915625 36.69449219 -22.783125 36.38898437 -22.15625 36.07421875 C-9.29905881 29.36200865 2.36116785 20.6058314 14 12 C12.06745228 9.9754262 10.36841312 8.57894208 8 7 C8 6.34 8 5.68 8 5 C6.8553125 4.814375 6.8553125 4.814375 5.6875 4.625 C3 4 3 4 0 2 C0 1.34 0 0.68 0 0 Z " fill="#AE8944" transform="translate(264,16)"/>
<path d="M0 0 C12.21 0 24.42 0 37 0 C37.27544985 7.31236964 37.53521675 14.6052123 37.67275238 21.91827393 C37.74047669 25.32545251 37.83030232 28.72819669 37.98071289 32.1328125 C38.74840167 50.91860857 36.81886776 63.52734427 25.55426025 78.83914185 C23.35463428 81.89723956 21.53287861 85.09232729 19.6875 88.375 C19.07390625 89.45007813 18.4603125 90.52515625 17.828125 91.6328125 C15.75293044 95.45507256 13.84232555 99.34105383 11.9375 103.25 C8.85810832 109.56161804 5.50648697 115.56609108 1 121 C0.67 121 0.34 121 0 121 C0 81.07 0 41.14 0 0 Z " fill="#B18C46" transform="translate(272,64)"/>
<path d="M0 0 C12.54 0 25.08 0 38 0 C38 33 38 66 38 100 C35.7937094 97.0582792 33.98082316 94.36090733 32.1875 91.19140625 C31.66929687 90.27939453 31.15109375 89.36738281 30.6171875 88.42773438 C29.81667969 87.00944336 29.81667969 87.00944336 29 85.5625 C27.93796137 83.68854053 26.87547549 81.81483445 25.8125 79.94140625 C25.11060547 78.69919312 25.11060547 78.69919312 24.39453125 77.43188477 C22.96216492 74.93402044 21.4875615 72.4653295 20 70 C19.28057889 68.7907636 18.56177696 67.58115849 17.84375 66.37109375 C17.06254048 65.05987171 16.28128968 63.74867427 15.5 62.4375 C15.10941406 61.77814453 14.71882812 61.11878906 14.31640625 60.43945312 C12.70770105 57.7447365 11.12192936 55.16016598 9.21875 52.66015625 C8 51 8 51 8 49 C7.34 48.67 6.68 48.34 6 48 C5.26401381 46.14403484 4.53149228 44.28534339 3.87890625 42.3984375 C2.98507236 39.83346033 2.98507236 39.83346033 1.46337891 36.84399414 C-0.20591016 32.95198688 -0.38806308 29.2905425 -0.29296875 25.09765625 C-0.28994751 24.45598511 -0.28692627 23.81431396 -0.28381348 23.15319824 C-0.26828928 20.78946511 -0.22640712 18.42596389 -0.1875 16.0625 C-0.125625 10.761875 -0.06375 5.46125 0 0 Z " fill="#AF8C48" transform="translate(169,118)"/>
<path d="M0 0 C12.21 0 24.42 0 37 0 C37.27544985 7.31236964 37.53521675 14.6052123 37.67275238 21.91827393 C37.74047669 25.32545251 37.83030232 28.72819669 37.98071289 32.1328125 C38.74840167 50.91860857 36.81886776 63.52734427 25.55426025 78.83914185 C23.35463428 81.89723956 21.53287861 85.09232729 19.6875 88.375 C19.07390625 89.45007813 18.4603125 90.52515625 17.828125 91.6328125 C15.75293044 95.45507256 13.84232555 99.34105383 11.9375 103.25 C8.85810832 109.56161804 5.50648697 115.56609108 1 121 C0.67 121 0.34 121 0 121 C0 81.07 0 41.14 0 0 Z M1 1 C0.97082133 13.20409931 0.97082133 13.20409931 0.95117188 25.40820312 C0.94523866 30.39983204 0.9382894 35.39144228 0.92456055 40.38305664 C0.91354002 44.41609461 0.90768346 48.4491125 0.90512276 52.48216438 C0.90330247 54.00600563 0.89974997 55.52984603 0.89426994 57.05367851 C0.86164425 66.5191691 1.14237204 75.90773026 1.77857971 85.35272217 C2.05153378 89.84887437 2.08312732 94.3111556 2 98.8125 C1.79339136 104.98630491 1.79339136 104.98630491 3 111 C3.66 111 4.32 111 5 111 C5 110.01 5 109.02 5 108 C6.485 107.505 6.485 107.505 8 107 C9.33903214 104.65245602 9.33903214 104.65245602 10 102 C9.67 101.01 9.34 100.02 9 99 C8.34 98.67 7.68 98.34 7 98 C7.804375 97.54625 8.60875 97.0925 9.4375 96.625 C12.08856572 95.25274335 12.08856572 95.25274335 13 93 C13.515625 92.566875 14.03125 92.13375 14.5625 91.6875 C16.50434337 89.40794474 16.07309455 87.92378182 16 85 C16.66 84.01 17.32 83.02 18 82 C18.66 82 19.32 82 20 82 C21.06639644 80.37501495 22.04710343 78.69403834 23 77 C23.84480612 75.57773147 24.69948034 74.16129097 25.5625 72.75 C25.97628906 72.06421875 26.39007813 71.3784375 26.81640625 70.671875 C28 69 28 69 30 68 C30.68472665 66.11235097 30.68472665 66.11235097 31.125 63.9375 C31.29257812 63.20402344 31.46015625 62.47054687 31.6328125 61.71484375 C31.75398438 61.14894531 31.87515625 60.58304688 32 60 C32.66 60 33.32 60 34 60 C36.62268359 54.05585554 36.25353743 48.18477992 36.1953125 41.8203125 C36.19106766 40.06846146 36.19106766 40.06846146 36.18673706 38.28121948 C36.17556973 34.56237409 36.15047104 30.84377223 36.125 27.125 C36.11496576 24.59896182 36.10584069 22.07291985 36.09765625 19.546875 C36.07734593 13.36441471 36.03818964 7.182479 36 1 C24.45 1 12.9 1 1 1 Z " fill="#C1AC7E" transform="translate(272,64)"/>
<path d="M0 0 C1.32 0.66 2.64 1.32 4 2 C2.92363281 2.68964844 1.84726562 3.37929688 0.73828125 4.08984375 C-6.09892492 8.48457231 -12.91197798 12.88870745 -19.5625 17.5625 C-24.88471887 21.29401833 -30.34741747 24.71514206 -35.88745117 28.10717773 C-41.58622425 31.64194701 -46.97456255 35.53013315 -52.30419922 39.59716797 C-56.80145894 43 -56.80145894 43 -59 43 C-59.33 41.68 -59.66 40.36 -60 39 C-58.68 39.33 -57.36 39.66 -56 40 C-56 38.35 -56 36.7 -56 35 C-55.01 34.505 -55.01 34.505 -54 34 C-54 34.66 -54 35.32 -54 36 C-52.2984375 35.071875 -52.2984375 35.071875 -50.5625 34.125 C-49.92441406 33.77695313 -49.28632813 33.42890625 -48.62890625 33.0703125 C-46.83381685 32.08589976 -46.83381685 32.08589976 -46 30 C-45.34 30 -44.68 30 -44 30 C-43.67 29.34 -43.34 28.68 -43 28 C-41.01833966 26.9641321 -39.01526169 25.96887581 -37 25 C-33.6070925 23.14932318 -32.17842107 22.26763161 -30 19 C-28.68 19 -27.36 19 -26 19 C-26 18.34 -26 17.68 -26 17 C-24.3603125 16.1028125 -24.3603125 16.1028125 -22.6875 15.1875 C-20.08925871 13.70955303 -17.95650507 12.30177067 -16 10 C-15.01 10.33 -14.02 10.66 -13 11 C-13.495 9.515 -13.495 9.515 -14 8 C-11.35261084 6.5393715 -10.10551666 6 -7 6 C-7 5.34 -7 4.68 -7 4 C-6.401875 3.855625 -5.80375 3.71125 -5.1875 3.5625 C-3.43849596 3.1127561 -1.71322977 2.57107659 0 2 C0 1.34 0 0.68 0 0 Z " fill="#C7A86C" transform="translate(270,50)"/>
<path d="M0 0 C0.495 1.485 0.495 1.485 1 3 C-1 6 -1 6 -3.1875 6.8125 C-6.58259673 8.24598528 -8.767119 10.27196395 -11.44921875 12.7578125 C-13 14 -13 14 -15 14 C-18.38781204 15.75664328 -21.24044361 17.24044361 -23.9375 19.9375 C-25.91204243 21.91204243 -27.67834537 23.0825117 -30.0625 24.5 C-32.52874252 25.97339857 -33.87579229 26.82610921 -35.5625 29.1875 C-37.79622283 32.00393313 -40.58880977 32.17660925 -44 33 C-45.67632417 33.64199649 -47.34750513 34.29894157 -49 35 C-47.52949652 30.58848955 -43.95377777 28.14860084 -40 26 C-39.01 26 -38.02 26 -37 26 C-36.67 25.01 -36.34 24.02 -36 23 C-34.44946289 21.77319336 -34.44946289 21.77319336 -32.47265625 20.58984375 C-31.76302734 20.15736328 -31.05339844 19.72488281 -30.32226562 19.27929688 C-29.57654297 18.83650391 -28.83082031 18.39371094 -28.0625 17.9375 C-26.5936405 17.05312152 -25.12613008 16.16649742 -23.66015625 15.27734375 C-23.00668213 14.88796631 -22.35320801 14.49858887 -21.67993164 14.09741211 C-19.84182192 12.9786708 -19.84182192 12.9786708 -18 11 C-17.01 11 -16.02 11 -15 11 C-15 10.34 -15 9.68 -15 9 C-13.87851563 8.40251953 -13.87851563 8.40251953 -12.734375 7.79296875 C-11.74953125 7.26316406 -10.7646875 6.73335937 -9.75 6.1875 C-8.77546875 5.66542969 -7.8009375 5.14335938 -6.796875 4.60546875 C-4.36644588 3.21034812 -2.19212301 1.73804039 0 0 Z " fill="#CEB170" transform="translate(255,44)"/>
<path d="M0 0 C1.20446777 0.01047363 2.40893555 0.02094727 3.64990234 0.03173828 C5.60283203 0.04140625 5.60283203 0.04140625 7.59521484 0.05126953 C8.9754258 0.06798149 10.35563413 0.08491139 11.73583984 0.10205078 C13.12385436 0.11208072 14.51187574 0.12120655 15.89990234 0.12939453 C19.3037201 0.15303215 22.70719491 0.18598211 26.11083984 0.22705078 C25.12083984 0.55705078 24.13083984 0.88705078 23.11083984 1.22705078 C23.11083984 1.88705078 23.11083984 2.54705078 23.11083984 3.22705078 C22.12083984 3.08267578 21.13083984 2.93830078 20.11083984 2.78955078 C16.1167452 2.21779899 12.11551047 1.71885244 8.11083984 1.22705078 C8.11083984 1.88705078 8.11083984 2.54705078 8.11083984 3.22705078 C8.77083984 3.55705078 9.43083984 3.88705078 10.11083984 4.22705078 C7.44417318 4.22705078 4.77750651 4.22705078 2.11083984 4.22705078 C2.11083984 3.56705078 2.11083984 2.90705078 2.11083984 2.22705078 C-0.52916016 4.20705078 -3.16916016 6.18705078 -5.88916016 8.22705078 C-5.55916016 9.21705078 -5.22916016 10.20705078 -4.88916016 11.22705078 C-2.09691943 11.30776866 0.6930055 11.36740486 3.48583984 11.41455078 C4.67693359 11.45225586 4.67693359 11.45225586 5.89208984 11.49072266 C7.96670132 11.51709484 10.04184849 11.3819154 12.11083984 11.22705078 C12.77083984 10.23705078 13.43083984 9.24705078 14.11083984 8.22705078 C14.44083984 9.21705078 14.77083984 10.20705078 15.11083984 11.22705078 C18.74083984 10.89705078 22.37083984 10.56705078 26.11083984 10.22705078 C26.11083984 10.88705078 26.11083984 11.54705078 26.11083984 12.22705078 C28.75083984 12.22705078 31.39083984 12.22705078 34.11083984 12.22705078 C34.11083984 12.55705078 34.11083984 12.88705078 34.11083984 13.22705078 C18.93083984 13.22705078 3.75083984 13.22705078 -11.88916016 13.22705078 C-3.65471844 0.2872138 -3.65471844 0.2872138 0 0 Z " fill="#8D6E39" transform="translate(156.88916015625,86.77294921875)"/>
<path d="M0 0 C0.66 0 1.32 0 2 0 C2.16276649 10.50125963 2.28685974 21.00221526 2.3626852 31.50448322 C2.39909301 36.38210677 2.44841241 41.25886227 2.52807617 46.13598633 C2.60458486 50.84988522 2.64608376 55.56295352 2.6641407 60.27742577 C2.67699498 62.06871796 2.70209613 63.85996879 2.7401104 65.6509037 C2.96326296 76.60789624 2.5488337 84.29595638 -5 93 C-5.66 92.67 -6.32 92.34 -7 92 C-6.67 91.01 -6.34 90.02 -6 89 C-5.34 89 -4.68 89 -4 89 C-3.67 87.35 -3.34 85.7 -3 84 C-2.34 84 -1.68 84 -1 84 C0.04990808 79.71589529 0.13539183 75.56390531 0.11352539 71.18041992 C0.11367142 70.40915771 0.11381744 69.63789551 0.1139679 68.84326172 C0.11327378 66.305635 0.10550492 63.76808258 0.09765625 61.23046875 C0.09579029 59.46641581 0.09436723 57.70236236 0.09336853 55.93830872 C0.08955738 51.3039506 0.07973909 46.66962401 0.06866455 42.03527832 C0.05842026 37.30282009 0.05386445 32.57035675 0.04882812 27.83789062 C0.03811555 18.55857993 0.02105599 9.27929259 0 0 Z " fill="#BE9F62" transform="translate(256,132)"/>
<path d="M0 0 C10.23 0 20.46 0 31 0 C31 0.33 31 0.66 31 1 C29.94039063 1.13277344 28.88078125 1.26554687 27.7890625 1.40234375 C26.40101721 1.58053875 25.01299769 1.7589346 23.625 1.9375 C22.92632812 2.02451172 22.22765625 2.11152344 21.5078125 2.20117188 C17.63216425 2.66318128 17.63216425 2.66318128 14 4 C14.33 4.66 14.66 5.32 15 6 C14.01 6 13.02 6 12 6 C11.67 6.99 11.34 7.98 11 9 C9.53890937 8.74445946 8.08111904 8.46999628 6.625 8.1875 C5.81289063 8.03667969 5.00078125 7.88585937 4.1640625 7.73046875 C2 7 2 7 0 4 C0 2.68 0 1.36 0 0 Z " fill="#9C7B3E" transform="translate(271,17)"/>
<path d="M0 0 C37.95 0 75.9 0 115 0 C114.67 0.66 114.34 1.32 114 2 C113.44008677 1.99815641 112.88017353 1.99631283 112.30329323 1.99441338 C98.69158293 1.95028204 85.07988513 1.91729428 71.46811867 1.89637566 C64.88561978 1.88592073 58.30317238 1.87173041 51.72070312 1.84912109 C45.37299465 1.82745359 39.02533582 1.81544427 32.67759323 1.81024551 C30.25099277 1.80653878 27.82439514 1.79930089 25.3978157 1.78853989 C22.00945326 1.77410596 18.6212982 1.77201866 15.23291016 1.77294922 C14.22087021 1.76575867 13.20883026 1.75856812 12.16612244 1.75115967 C10.78628426 1.75528366 10.78628426 1.75528366 9.37857056 1.75949097 C8.17563071 1.75672559 8.17563071 1.75672559 6.94838905 1.75390434 C4.76375558 1.82762824 4.76375558 1.82762824 3 4 C2.01 2.68 1.02 1.36 0 0 Z " fill="#8990AB" transform="translate(20,82)"/>
<path d="M0 0 C17.49 0 34.98 0 53 0 C53 11.55 53 23.1 53 35 C51.35 34.67 49.7 34.34 48 34 C47.34 33.01 46.68 32.02 46 31 C48 32 50 33 52 34 C52 23.11 52 12.22 52 1 C37.15 1 22.3 1 7 1 C7 2.32 7 3.64 7 5 C2.25 3.125 2.25 3.125 0 2 C0 1.34 0 0.68 0 0 Z " fill="#AC996F" transform="translate(264,16)"/>
<path d="M0 0 C0.33 0 0.66 0 1 0 C1.99988418 6.53185206 -1.51752652 11.07384923 -4.75 16.4375 C-5.28882813 17.35337891 -5.82765625 18.26925781 -6.3828125 19.21289062 C-7.43185079 20.9949764 -8.48571492 22.77423225 -9.54492188 24.55029297 C-11.40295616 27.67839969 -13.20619338 30.83471502 -15 34 C-15.66 34 -16.32 34 -17 34 C-16.08364394 28.35717582 -15.40429633 24.88614382 -11 21 C-9.53832535 18.72296943 -8.28438912 16.38529408 -7 14 C-6.34 14 -5.68 14 -5 14 C-4.7834375 12.576875 -4.7834375 12.576875 -4.5625 11.125 C-4 8 -4 8 -3 6 C-2.34 6 -1.68 6 -1 6 C-1.020625 5.195625 -1.04125 4.39125 -1.0625 3.5625 C-1 1 -1 1 0 0 Z " fill="#B7A174" transform="translate(307,118)"/>
<path d="M0 0 C0.66 0.33 1.32 0.66 2 1 C0.54073252 8.13419658 -3.2226978 13.84925925 -7 20 C-10 19 -10 19 -11.6875 16.8125 C-13.17161628 13.63225084 -13.24194353 11.46785727 -13 8 C-12.34 8.66 -11.68 9.32 -11 10 C-10.01 10 -9.02 10 -8 10 C-7.67 10.66 -7.34 11.32 -7 12 C-6.071875 10.6078125 -6.071875 10.6078125 -5.125 9.1875 C-3.75 7.125 -2.375 5.0625 -1 3 C-0.67 2.01 -0.34 1.02 0 0 Z " fill="#A48758" transform="translate(240,239)"/>
<path d="M0 0 C4.62 0 9.24 0 14 0 C14.33 0.66 14.66 1.32 15 2 C14.38511719 2.01417969 13.77023438 2.02835937 13.13671875 2.04296875 C10.66500527 2.18882744 8.40322852 2.39493183 6 3 C3.8613923 5.38987933 3.8613923 5.38987933 3 8 C3.66 8.33 4.32 8.66 5 9 C4.67 9.33 4.34 9.66 4 10 C3.76807135 11.51469448 3.58784762 13.03754562 3.4375 14.5625 C3.35371094 15.38878906 3.26992187 16.21507812 3.18359375 17.06640625 C3.12300781 17.70449219 3.06242188 18.34257812 3 19 C2.67 19 2.34 19 2 19 C1.67 20.98 1.34 22.96 1 25 C0.67 25 0.34 25 0 25 C0 16.75 0 8.5 0 0 Z " fill="#A68A59" transform="translate(169,118)"/>
<path d="M0 0 C0.66 0.99 1.32 1.98 2 3 C5.63 2.67 9.26 2.34 13 2 C13 2.66 13 3.32 13 4 C15.64 4 18.28 4 21 4 C21 4.33 21 4.66 21 5 C5.82 5 -9.36 5 -25 5 C-24.34 4.01 -23.68 3.02 -23 2 C-21.96875 2.165 -20.9375 2.33 -19.875 2.5 C-13.61130822 3.3027475 -7.30194211 3.07965938 -1 3 C-0.67 2.01 -0.34 1.02 0 0 Z " fill="#83693A" transform="translate(170,95)"/>
<path d="M0 0 C1.32 0.66 2.64 1.32 4 2 C3.50072998 2.32274902 3.00145996 2.64549805 2.48706055 2.97802734 C0.22039898 4.44346634 -2.04605266 5.90922969 -4.3125 7.375 C-5.09818359 7.88289063 -5.88386719 8.39078125 -6.69335938 8.9140625 C-7.45068359 9.40390625 -8.20800781 9.89375 -8.98828125 10.3984375 C-9.68477783 10.84880371 -10.38127441 11.29916992 -11.09887695 11.76318359 C-12.7399808 12.83083893 -14.37098455 13.9139897 -16 15 C-16.99 15 -17.98 15 -19 15 C-18.6875 13.0625 -18.6875 13.0625 -18 11 C-17.01 10.67 -16.02 10.34 -15 10 C-14.34 10.33 -13.68 10.66 -13 11 C-13.33 10.01 -13.66 9.02 -14 8 C-11.35261084 6.5393715 -10.10551666 6 -7 6 C-7 5.34 -7 4.68 -7 4 C-6.401875 3.855625 -5.80375 3.71125 -5.1875 3.5625 C-3.43849596 3.1127561 -1.71322977 2.57107659 0 2 C0 1.34 0 0.68 0 0 Z " fill="#C0A061" transform="translate(270,50)"/>
<path d="M0 0 C1.65 0.33 3.3 0.66 5 1 C0.77057708 6.35726903 -1.34841683 8.19618083 -8 10 C-9.67632417 10.64199649 -11.34750513 11.29894157 -13 12 C-11.52949652 7.58848955 -7.95377777 5.14860084 -4 3 C-3.01 3 -2.02 3 -1 3 C-0.67 2.01 -0.34 1.02 0 0 Z " fill="#C0A371" transform="translate(219,67)"/>
<path d="M0 0 C0.99 0.33 1.98 0.66 3 1 C4.1875 4.0625 4.1875 4.0625 5 7 C5.66 7 6.32 7 7 7 C7.33 8.65 7.66 10.3 8 12 C11.7763932 12.2981424 11.7763932 12.2981424 14 11 C14 14.96 14 18.92 14 23 C11.46567658 20.46567658 10.0456202 18.61958872 8.30078125 15.5859375 C7.81416016 14.74289063 7.32753906 13.89984375 6.82617188 13.03125 C6.32666016 12.1546875 5.82714844 11.278125 5.3125 10.375 C4.80138672 9.49070313 4.29027344 8.60640625 3.76367188 7.6953125 C0 1.14280499 0 1.14280499 0 0 Z " fill="#AE9762" transform="translate(192,192)"/>
<path d="M0 0 C0.33 0 0.66 0 1 0 C1 10.56 1 21.12 1 32 C-1.7760671 29.2239329 -1.54133895 26.48586047 -1.75 22.75 C-1.79310303 22.04359375 -1.83620605 21.3371875 -1.88061523 20.609375 C-2.20189363 13.57110006 -1.30903007 6.92379543 0 0 Z " fill="#B6965A" transform="translate(205,156)"/>
<path d="M0 0 C0.33 0 0.66 0 1 0 C1.96639442 13.01181059 2.1183055 25.95545355 2 39 C2.66 39.33 3.32 39.66 4 40 C3.01 40.495 3.01 40.495 2 41 C1.59270772 43.32156597 1.25561323 45.6568787 1 48 C0.67 48 0.34 48 0 48 C0 32.16 0 16.32 0 0 Z " fill="#BFA162" transform="translate(273,136)"/>
<path d="M0 0 C0.66 0.33 1.32 0.66 2 1 C0.7550659 3.54425853 -0.49573888 6.08534361 -1.75 8.625 C-2.27207031 9.69427734 -2.27207031 9.69427734 -2.8046875 10.78515625 C-4.93718358 15.08963907 -7.2438475 19.06441288 -10 23 C-10.66 22.67 -11.32 22.34 -12 22 C-11.67 20.68 -11.34 19.36 -11 18 C-10.34 18 -9.68 18 -9 18 C-9 16.68 -9 15.36 -9 14 C-7.6875 12.5625 -7.6875 12.5625 -6 11 C-4.03092125 8.04638188 -2.64842423 5.50149082 -2 2 C-1.34 2 -0.68 2 0 2 C0 1.34 0 0.68 0 0 Z " fill="#CFB57E" transform="translate(286,158)"/>
<path d="M0 0 C1.32 0.66 2.64 1.32 4 2 C-0.62 4.97 -5.24 7.94 -10 11 C-10.33 10.01 -10.66 9.02 -11 8 C-10.34 7.01 -9.68 6.02 -9 5 C-7.68 5 -6.36 5 -5 5 C-5 4.34 -5 3.68 -5 3 C-2.75 1.25 -2.75 1.25 0 0 Z " fill="#D1B572" transform="translate(249,64)"/>
<path d="M0 0 C0.33 0 0.66 0 1 0 C1.87128304 11.02242189 1.39688511 18.0935465 -6 27 C-6.66 26.67 -7.32 26.34 -8 26 C-7.505 24.515 -7.505 24.515 -7 23 C-6.34 23 -5.68 23 -5 23 C-4.67 21.35 -4.34 19.7 -4 18 C-3.34 18 -2.68 18 -2 18 C-1.34 12.06 -0.68 6.12 0 0 Z " fill="#B19860" transform="translate(257,198)"/>
<path d="M0 0 C2.31 0 4.62 0 7 0 C3.25 3 3.25 3 1 3 C1 13.23 1 23.46 1 34 C0.67 34 0.34 34 0 34 C0 22.78 0 11.56 0 0 Z " fill="#A3834B" transform="translate(273,65)"/>
<path d="M0 0 C0.66 0.33 1.32 0.66 2 1 C0.60838228 7.4014415 -2.28499414 12.61703232 -6 18 C-6.33 18 -6.66 18 -7 18 C-6.5296289 13.20221474 -5.75532291 9.967665 -3 6 C-0.89767656 3.1315587 -0.89767656 3.1315587 0 0 Z " fill="#A8976D" transform="translate(240,239)"/>
<path d="M0 0 C5.28 0 10.56 0 16 0 C16 0.33 16 0.66 16 1 C10.06 1.495 10.06 1.495 4 2 C4 4.46278801 4.85452863 5.85224119 6 8 C3.5625 7.375 3.5625 7.375 1 6 C0.67 4.02 0.34 2.04 0 0 Z " fill="#A48957" transform="translate(271,17)"/>
<path d="M0 0 C0.99 0.804375 1.98 1.60875 3 2.4375 C6.99119164 5.32682892 10.13291572 5.74383767 15 6 C14.67 6.66 14.34 7.32 14 8 C8.52566405 8.21467984 4.39107803 8.14372513 0.1875 4.375 C-0.4003125 3.694375 -0.4003125 3.694375 -1 3 C-0.67 2.01 -0.34 1.02 0 0 Z " fill="#465275" transform="translate(190,356)"/>
<path d="M0 0 C0.33 0.99 0.66 1.98 1 3 C1.78375 3.268125 2.5675 3.53625 3.375 3.8125 C6.92931823 5.42040587 7.54859934 7.48608262 9 11 C6.19550072 9.63241271 3.48556336 8.17235617 0.8125 6.5625 C0.11769531 6.15128906 -0.57710938 5.74007812 -1.29296875 5.31640625 C-3 4 -3 4 -4 1 C-2 0 -2 0 0 0 Z " fill="#A99461" transform="translate(301,36)"/>
<path d="M0 0 C0.33 0 0.66 0 1 0 C1 3.96 1 7.92 1 12 C-2.48763093 10.25618453 -5.03368051 8.47193291 -8 6 C-7.67 5.34 -7.34 4.68 -7 4 C-6.34 4.33 -5.68 4.66 -5 5 C-5 5.66 -5 6.32 -5 7 C-3.35 6.67 -1.7 6.34 0 6 C0 4.02 0 2.04 0 0 Z " fill="#9D8249" transform="translate(315,38)"/>
<path d="M0 0 C0.33 0 0.66 0 1 0 C1 11.88 1 23.76 1 36 C0.67 36 0.34 36 0 36 C0 24.12 0 12.24 0 0 Z " fill="#FFFFFF" transform="translate(0,82)"/>
<path d="M0 0 C0.625 1.875 0.625 1.875 1 4 C-1.48503465 6.48503465 -3.67561404 6.93619649 -7 8 C-8.34721283 8.63815344 -9.68747118 9.29325371 -11 10 C-9.54144353 6.31353859 -7.69770955 4.83856029 -4.375 2.75 C-3.55773437 2.22921875 -2.74046875 1.7084375 -1.8984375 1.171875 C-1.27195312 0.78515625 -0.64546875 0.3984375 0 0 Z " fill="#B5935C" transform="translate(267,36)"/>
<path d="M0 0 C1.32 0.33 2.64 0.66 4 1 C3.67 1.66 3.34 2.32 3 3 C3.66 3 4.32 3 5 3 C5 2.34 5 1.68 5 1 C6.98 1 8.96 1 11 1 C8.81482901 3.40575607 6.74080329 4.79535581 3.8125 6.1875 C3.09707031 6.53167969 2.38164062 6.87585937 1.64453125 7.23046875 C1.10183594 7.48441406 0.55914062 7.73835938 0 8 C0 7.01 0 6.02 0 5 C0.66 5 1.32 5 2 5 C2 4.01 2 3.02 2 2 C1.34 2 0.68 2 0 2 C0 1.34 0 0.68 0 0 Z " fill="#B79F73" transform="translate(285,36)"/>
<path d="M0 0 C0.74304413 4.75548243 -1.26756947 7.56068738 -3.7109375 11.42578125 C-4.13632812 11.94527344 -4.56171875 12.46476563 -5 13 C-5.66 13 -6.32 13 -7 13 C-4.88888889 0 -4.88888889 0 0 0 Z " fill="#B19B67" transform="translate(297,139)"/>
<path d="M0 0 C0.66 0.66 1.32 1.32 2 2 C-0.31 6.29 -2.62 10.58 -5 15 C-5.33 15 -5.66 15 -6 15 C-5.53680089 10.27536912 -4.90108294 6.82942948 -2 3 C-1.34 3 -0.68 3 0 3 C0 2.01 0 1.02 0 0 Z " fill="#AD976B" transform="translate(248,225)"/>
<path d="M0 0 C-2.80472516 3.29967665 -6.16918209 5.08459104 -10 7 C-10.99 6.67 -11.98 6.34 -13 6 C-11.68 5.67 -10.36 5.34 -9 5 C-9 4.01 -9 3.02 -9 2 C-3.375 -1.125 -3.375 -1.125 0 0 Z " fill="#C5B180" transform="translate(211,93)"/>
<path d="M0 0 C3.96 0 7.92 0 12 0 C7.5 4 7.5 4 3 4 C2.01 3.34 1.02 2.68 0 2 C0 1.34 0 0.68 0 0 Z " fill="#354266" transform="translate(325,83)"/>
<path d="M0 0 C0.33 0 0.66 0 1 0 C1 3.96 1 7.92 1 12 C0.01 12.495 0.01 12.495 -1 13 C-1.2236337 11.58566794 -1.42826476 10.16832382 -1.625 8.75 C-1.74101562 7.96109375 -1.85703125 7.1721875 -1.9765625 6.359375 C-2.00319395 3.67847541 -1.36592084 2.27305911 0 0 Z " fill="#B08F55" transform="translate(205,128)"/>
<path d="M0 0 C1.65 0 3.3 0 5 0 C3.33784732 1.33895632 1.67036393 2.67130142 0 4 C-0.70125 4.5775 -1.4025 5.155 -2.125 5.75 C-4 7 -4 7 -7 7 C-6.67 5.68 -6.34 4.36 -6 3 C-5.195625 2.87625 -4.39125 2.7525 -3.5625 2.625 C-2.716875 2.41875 -1.87125 2.2125 -1 2 C-0.67 1.34 -0.34 0.68 0 0 Z " fill="#C8AF69" transform="translate(258,58)"/>
<path d="M0 0 C0.33 0 0.66 0 1 0 C0.50269348 4.97306516 -0.55302334 8.63799813 -3 13 C-3.66 13 -4.32 13 -5 13 C-4.39254603 8.14036821 -2.27241033 4.2594482 0 0 Z " fill="#2E3D5F" transform="translate(345,153)"/>
<path d="M0 0 C3.125 -0.1875 3.125 -0.1875 6 0 C2.7129243 3.81300782 -0.39727838 5.22972246 -5 7 C-5 6.01 -5 5.02 -5 4 C-4.01 3.67 -3.02 3.34 -2 3 C-1.34 2.01 -0.68 1.02 0 0 Z " fill="#B9A675" transform="translate(279,44)"/>
<path d="M0 0 C1.32 0.33 2.64 0.66 4 1 C5.6875 4.4375 5.6875 4.4375 7 8 C7.33 8.66 7.66 9.32 8 10 C7.34 10.66 6.68 11.32 6 12 C4.02 8.04 2.04 4.08 0 0 Z " fill="#B39C69" transform="translate(185,180)"/>
<path d="M0 0 C0.99 0.33 1.98 0.66 3 1 C1.68 1.99 0.36 2.98 -1 4 C-0.67 2.68 -0.34 1.36 0 0 Z M-5 4 C-3.68 4 -2.36 4 -1 4 C-1.6875 5.9375 -1.6875 5.9375 -3 8 C-5.625 8.75 -5.625 8.75 -8 9 C-6.75 6.5 -6.75 6.5 -5 4 Z " fill="#C09B56" transform="translate(221,67)"/>
<path d="M0 0 C0.33 0.99 0.66 1.98 1 3 C-1 6 -1 6 -2.9453125 6.51171875 C-3.66460937 6.56972656 -4.38390625 6.62773438 -5.125 6.6875 C-7.043125 6.8421875 -7.043125 6.8421875 -9 7 C-6.03716687 4.61327331 -3.05729491 2.2646629 0 0 Z " fill="#C8A366" transform="translate(255,44)"/>
<path d="M0 0 C2.475 0.99 2.475 0.99 5 2 C5 4.31 5 6.62 5 9 C2 8 2 8 0.8125 6.1875 C0 4 0 4 0 0 Z " fill="#A28444" transform="translate(177,162)"/>
<path d="M0 0 C1.32 0.33 2.64 0.66 4 1 C4.33 3.64 4.66 6.28 5 9 C1.7457985 6.16569547 0.4793247 4.31392226 0 0 Z " fill="#394567" transform="translate(24,84)"/>
<path d="M0 0 C1.32 0.66 2.64 1.32 4 2 C1.36 3.65 -1.28 5.3 -4 7 C-3.6875 4.625 -3.6875 4.625 -3 2 C-2.01 1.34 -1.02 0.68 0 0 Z " fill="#D7C189" transform="translate(249,64)"/>
<path d="M0 0 C1.98 0 3.96 0 6 0 C6.33 1.65 6.66 3.3 7 5 C2.25 3.125 2.25 3.125 0 2 C0 1.34 0 0.68 0 0 Z " fill="#A9987B" transform="translate(264,16)"/>
<path d="M0 0 C4.29 0 8.58 0 13 0 C12.67 1.32 12.34 2.64 12 4 C10.68 3.67 9.36 3.34 8 3 C8 2.34 8 1.68 8 1 C5.36 1 2.72 1 0 1 C0 0.67 0 0.34 0 0 Z " fill="#9A7D43" transform="translate(295,65)"/>
<path d="M0 0 C0.99 0.33 1.98 0.66 3 1 C2.67 1.99 2.34 2.98 2 4 C2.66 4.33 3.32 4.66 4 5 C1.36 5 -1.28 5 -4 5 C-2.25 1.125 -2.25 1.125 0 0 Z " fill="#977B42" transform="translate(276,30)"/>
<path d="M0 0 C0.99 0.33 1.98 0.66 3 1 C1.35 3.64 -0.3 6.28 -2 9 C-2.66 8.67 -3.32 8.34 -4 8 C-3.67 7.01 -3.34 6.02 -3 5 C-2.34 5 -1.68 5 -1 5 C-0.67 3.35 -0.34 1.7 0 0 Z " fill="#B6A271" transform="translate(253,216)"/>
<path d="M0 0 C0.99 0.33 1.98 0.66 3 1 C3 3 3 3 1 5.125 C0.34 5.74375 -0.32 6.3625 -1 7 C-1.99 6.67 -2.98 6.34 -4 6 C-1.125 1.125 -1.125 1.125 0 0 Z " fill="#283559" transform="translate(281,204)"/>
<path d="M0 0 C0 2.64 0 5.28 0 8 C-2.34058637 5.87219421 -3.70700306 3.88437779 -5 1 C-2 0 -2 0 0 0 Z " fill="#B79E77" transform="translate(206,207)"/>
<path d="M0 0 C3.96 0 7.92 0 12 0 C11.01 0.33 10.02 0.66 9 1 C9 1.66 9 2.32 9 3 C2.25 2.25 2.25 2.25 0 0 Z " fill="#9A7B3C" transform="translate(171,87)"/>
<path d="M0 0 C0.66 0 1.32 0 2 0 C2 0.66 2 1.32 2 2 C2.66 2 3.32 2 4 2 C4 3.98 4 5.96 4 8 C1.10067643 5.60490662 0.49831724 3.68754757 0 0 Z " fill="#3E4C6C" transform="translate(175,334)"/>
<path d="M0 0 C0.66 0 1.32 0 2 0 C2.66 1.65 3.32 3.3 4 5 C2.68 5.33 1.36 5.66 0 6 C-0.38218767 4.34385343 -0.71395102 2.67542976 -1 1 C-0.67 0.67 -0.34 0.34 0 0 Z " fill="#2E3D60" transform="translate(209,255)"/>
<path d="M0 0 C0.66 0.33 1.32 0.66 2 1 C0.02 5.455 0.02 5.455 -2 10 C-2.92538169 6.29847322 -3.08174162 5.36541838 -2 2 C-1.34 2 -0.68 2 0 2 C0 1.34 0 0.68 0 0 Z " fill="#CEBA8E" transform="translate(286,158)"/>
<path d="M0 0 C0.99 0.33 1.98 0.66 3 1 C1.125 5.75 1.125 5.75 0 8 C-0.66 7.67 -1.32 7.34 -2 7 C-2 5.68 -2 4.36 -2 3 C-1.34 3 -0.68 3 0 3 C0 2.01 0 1.02 0 0 Z " fill="#C19E59" transform="translate(289,145)"/>
<path d="M0 0 C0 0.66 0 1.32 0 2 C2.64 2 5.28 2 8 2 C8 2.33 8 2.66 8 3 C6.41705218 3.05437607 4.83355744 3.09296271 3.25 3.125 C2.36828125 3.14820312 1.4865625 3.17140625 0.578125 3.1953125 C-2.1135858 2.99139502 -3.69904974 2.36551721 -6 1 C-3.92446352 0.4465236 -2.15634036 0 0 0 Z " fill="#90753E" transform="translate(183,97)"/>
<path d="M0 0 C0.33 0 0.66 0 1 0 C1 2.64 1 5.28 1 8 C0.01 7.67 -0.98 7.34 -2 7 C-1.125 2.25 -1.125 2.25 0 0 Z " fill="#9C8960" transform="translate(232,251)"/>
<path d="M0 0 C0.6875 1.6875 0.6875 1.6875 1 4 C-0.4375 6.75 -0.4375 6.75 -2 9 C-2.6875 7.3125 -2.6875 7.3125 -3 5 C-1.5625 2.25 -1.5625 2.25 0 0 Z " fill="#B5975B" transform="translate(205,191)"/>
<path d="M0 0 C0.66 0.66 1.32 1.32 2 2 C0.625 4.5 0.625 4.5 -1 7 C-1.66 7 -2.32 7 -3 7 C-3.33 7.66 -3.66 8.32 -4 9 C-3.35455571 5.51460083 -1.89865603 2.97180943 0 0 Z " fill="#BFA66A" transform="translate(289,151)"/>
<path d="M0 0 C0.33 1.32 0.66 2.64 1 4 C-0.4375 6.25 -0.4375 6.25 -2 8 C-2.99 7.67 -3.98 7.34 -5 7 C-3.35 4.69 -1.7 2.38 0 0 Z " fill="#967B4D" transform="translate(152,89)"/>
<path d="M0 0 C0 0.66 0 1.32 0 2 C-3.96 1.67 -7.92 1.34 -12 1 C-12 0.67 -12 0.34 -12 0 C-10.56359829 -0.19573608 -9.12580496 -0.38127816 -7.6875 -0.5625 C-6.88699219 -0.66691406 -6.08648437 -0.77132812 -5.26171875 -0.87890625 C-3 -1 -3 -1 0 0 Z " fill="#A18442" transform="translate(196,87)"/>
<path d="M0 0 C3.63 0 7.26 0 11 0 C11 0.33 11 0.66 11 1 C10.05125 1.12375 9.1025 1.2475 8.125 1.375 C4.91332809 1.71687177 4.91332809 1.71687177 3 4 C2.01 2.68 1.02 1.36 0 0 Z " fill="#969AAD" transform="translate(20,82)"/>
<path d="M0 0 C1.32 0 2.64 0 4 0 C3.67 2.31 3.34 4.62 3 7 C2.34 6.67 1.68 6.34 1 6 C0.375 2.9375 0.375 2.9375 0 0 Z " fill="#A48544" transform="translate(239,233)"/>
<path d="M0 0 C4 2 4 2 6 5 C5.67 6.32 5.34 7.64 5 9 C3.35 6.03 1.7 3.06 0 0 Z " fill="#263450" transform="translate(39,110)"/>
<path d="M0 0 C0.99 0.33 1.98 0.66 3 1 C1.71034824 2.37562854 0.37310707 3.70766393 -1 5 C-1.66 5 -2.32 5 -3 5 C-3.33 3.68 -3.66 2.36 -4 1 C-2.68 1.33 -1.36 1.66 0 2 C0 1.34 0 0.68 0 0 Z " fill="#CBB686" transform="translate(214,88)"/>
<path d="M0 0 C-1.04874998 2.62187494 -1.64931313 3.79371361 -4.125 5.25 C-4.74375 5.4975 -5.3625 5.745 -6 6 C-5.6875 4.125 -5.6875 4.125 -5 2 C-2 0 -2 0 0 0 Z " fill="#C9A86B" transform="translate(238,73)"/>
<path d="" fill="#FFFFFF" transform="translate(0,0)"/>
</svg>
